<svg width="24" height="8" viewBox="0 0 24 8" fill="none" xmlns="http://www.w3.org/2000/svg">
<path d="M22.4648 2.77488L20.2336 0.526289L20.2335 0.526251C20.2316 0.524345 20.2308 0.522899 20.2303 0.521557C20.2296 0.519878 20.229 0.517485 20.229 0.514601C20.229 0.513136 20.2292 0.511797 20.2294 0.510614C20.2296 0.50947 20.23 0.508471 20.2303 0.507646C20.2308 0.506304 20.2316 0.504857 20.2335 0.502952L20.2336 0.502851C20.2355 0.500992 20.2364 0.500628 20.2367 0.500517C20.2373 0.50027 20.2383 0.500001 20.2397 0.500001C20.241 0.500001 20.2421 0.50027 20.2427 0.500531L22.4648 2.77488ZM22.4648 2.77488H22.5004L20.2459 0.502943L22.4648 2.77488ZM20.2459 7.07601L22.5004 4.80407H22.4648L20.2336 7.05266L20.2335 7.0527C20.2316 7.05461 20.2308 7.05605 20.2303 7.0574C20.2296 7.05907 20.229 7.06147 20.229 7.06435C20.229 7.06724 20.2296 7.06963 20.2303 7.07131C20.2308 7.07265 20.2316 7.0741 20.2335 7.07601L20.2336 7.0761C20.2355 7.07796 20.2364 7.07832 20.2367 7.07843C20.2373 7.07868 20.2383 7.07895 20.2397 7.07895C20.241 7.07895 20.2421 7.07868 20.2427 7.07842L20.2427 7.07841C20.2431 7.07828 20.2441 7.07787 20.2459 7.07601ZM0.5 3.80407H22.0483L22.0628 3.78948L22.0483 3.77488H0.5V3.80407Z" fill="black" stroke="black"/>
</svg>
